<svg width="589" height="238" viewBox="0 0 589 238" fill="none" xmlns="http://www.w3.org/2000/svg">
<rect width="586" height="235" transform="translate(2.13672)" fill="url(#paint0_linear_91_2)"/>
<path d="M126.074 113.2V72.6H203V32H123.937H44.1369C41.7829 32 39.4329 32.1945 37.111 32.5815L34.0464 33.0922C29.8914 33.7848 25.8632 35.0946 22.0956 36.9784C17.4016 39.3255 13.3184 42.7332 10.1696 46.9317L8.54725 49.0947L8.22702 49.6285C4.24184 56.2704 2.13672 63.8706 2.13672 71.6164V203.884C2.13672 206.1 2.40851 208.308 2.94601 210.458C3.8222 213.963 5.39017 217.257 7.55775 220.147L8.02807 220.774C9.7898 223.123 11.8765 225.21 14.2255 226.972L14.8862 227.467C17.7587 229.622 21.0015 231.232 24.4541 232.219L28.4342 233.356C32.2523 234.447 36.2039 235 40.1749 235H164.537H169.418C177.382 235 185.167 232.643 191.794 228.225C193.562 227.046 195.209 225.696 196.712 224.193L197.337 223.569C201.061 219.844 203.867 215.304 205.533 210.307C206.686 206.848 207.274 203.225 207.274 199.579V115.337H166.674V196.537H126.074V158.074H83.3367V196.537H40.5999L42.7367 72.6H83.3367V113.2H126.074Z" fill="#2F345E" stroke="#2F345E" stroke-width="4.27368"/>
<path d="M269.437 101C264.303 101 259.537 100.1 255.137 98.3C250.737 96.5 246.87 94 243.537 90.8C240.203 87.6 237.603 83.8333 235.737 79.5C233.937 75.1 233.037 70.3333 233.037 65.2C233.037 60.0667 233.937 55.3333 235.737 51C237.603 46.6 240.137 42.8 243.337 39.6C246.603 36.4 250.403 33.9333 254.737 32.2C259.137 30.4 263.837 29.5 268.837 29.5C272.37 29.5 275.837 30 279.237 31C282.703 32 285.837 33.4 288.637 35.2C291.437 37 293.703 39.0333 295.437 41.3L290.237 46.6C288.37 44.6667 286.27 43 283.937 41.6C281.603 40.2 279.137 39.1 276.537 38.3C274.003 37.5 271.47 37.1 268.937 37.1C265.003 37.1 261.337 37.8 257.937 39.2C254.603 40.6 251.67 42.5667 249.137 45.1C246.603 47.5667 244.637 50.5333 243.237 54C241.837 57.4 241.137 61.1333 241.137 65.2C241.137 69.1333 241.837 72.8333 243.237 76.3C244.703 79.7 246.737 82.7 249.337 85.3C252.003 87.8333 255.07 89.8 258.537 91.2C262.003 92.6 265.737 93.3 269.737 93.3C272.87 93.3 275.803 92.8333 278.537 91.9C281.337 90.9667 283.77 89.6667 285.837 88C287.903 86.2667 289.503 84.2667 290.637 82C291.77 79.7333 292.337 77.3 292.337 74.7V71.2L293.937 73.2H269.337V65.5H300.137C300.203 66.0333 300.27 66.6667 300.337 67.4C300.403 68.0667 300.437 68.7667 300.437 69.5C300.503 70.1667 300.537 70.8 300.537 71.4C300.537 75.7333 299.737 79.7333 298.137 83.4C296.537 87 294.303 90.1333 291.437 92.8C288.637 95.4 285.37 97.4333 281.637 98.9C277.903 100.3 273.837 101 269.437 101ZM314.804 100V30H342.204C346.271 30 349.937 30.9667 353.204 32.9C356.537 34.7667 359.171 37.3333 361.104 40.6C363.037 43.8667 364.004 47.5667 364.004 51.7C364.004 55.5667 363.071 59.0667 361.204 62.2C359.337 65.3333 356.804 67.8333 353.604 69.7C350.404 71.5 346.804 72.4 342.804 72.4H322.604V100H314.804ZM357.504 100L339.904 69.2L347.404 66.6L366.804 100H357.504ZM322.604 64.8H343.504C345.971 64.8 348.137 64.2333 350.004 63.1C351.871 61.9667 353.337 60.4333 354.404 58.5C355.471 56.5 356.004 54.2333 356.004 51.7C356.004 48.9667 355.371 46.5333 354.104 44.4C352.837 42.2667 351.071 40.6 348.804 39.4C346.604 38.2 344.071 37.6 341.204 37.6H322.604V64.8ZM407.231 100.7C401.965 100.7 397.265 99.5333 393.131 97.2C388.998 94.8 385.731 91.5333 383.331 87.4C380.998 83.2 379.831 78.4667 379.831 73.2V30H387.631V72.3C387.631 76.2333 388.498 79.7667 390.231 82.9C391.965 86.0333 394.298 88.5 397.231 90.3C400.231 92.1 403.565 93 407.231 93C411.098 93 414.531 92.1 417.531 90.3C420.598 88.5 422.998 86.0333 424.731 82.9C426.465 79.7667 427.331 76.2333 427.331 72.3V30H434.831V73.2C434.831 78.4667 433.631 83.2 431.231 87.4C428.898 91.5333 425.631 94.8 421.431 97.2C417.298 99.5333 412.565 100.7 407.231 100.7ZM455.038 100V30H482.738C486.405 30 489.705 30.9 492.638 32.7C495.572 34.5 497.905 37 499.638 40.2C501.372 43.3333 502.238 46.8667 502.238 50.8C502.238 54.9333 501.372 58.6333 499.638 61.9C497.905 65.1 495.572 67.6667 492.638 69.6C489.705 71.4667 486.405 72.4 482.738 72.4H462.838V100H455.038ZM462.838 64.8H483.138C485.205 64.8 487.038 64.2 488.638 63C490.305 61.7333 491.638 60.0667 492.638 58C493.638 55.8667 494.138 53.4333 494.138 50.7C494.138 48.2333 493.638 46.0333 492.638 44.1C491.638 42.1 490.305 40.5333 488.638 39.4C487.038 38.2 485.205 37.6 483.138 37.6H462.838V64.8ZM546.145 101C541.212 101 536.645 100.133 532.445 98.4C528.312 96.6 524.679 94.1 521.545 90.9C518.479 87.7 516.079 83.9333 514.345 79.6C512.679 75.2 511.845 70.4 511.845 65.2C511.845 60 512.679 55.2333 514.345 50.9C516.079 46.5 518.479 42.7 521.545 39.5C524.679 36.2333 528.312 33.7333 532.445 32C536.645 30.2 541.212 29.3 546.145 29.3C551.145 29.3 555.712 30.2 559.845 32C564.045 33.7333 567.679 36.2333 570.745 39.5C573.879 42.7 576.279 46.5 577.945 50.9C579.679 55.2333 580.545 60 580.545 65.2C580.545 70.3333 579.679 75.1 577.945 79.5C576.279 83.8333 573.879 87.6333 570.745 90.9C567.679 94.1 564.045 96.6 559.845 98.4C555.712 100.133 551.145 101 546.145 101ZM546.145 93.3C549.945 93.3 553.445 92.6333 556.645 91.3C559.912 89.9 562.712 87.9333 565.045 85.4C567.379 82.8667 569.179 79.9 570.445 76.5C571.779 73.0333 572.445 69.2667 572.445 65.2C572.445 61.0667 571.779 57.3 570.445 53.9C569.179 50.4333 567.379 47.4333 565.045 44.9C562.712 42.3667 559.912 40.4 556.645 39C553.445 37.6 549.945 36.9 546.145 36.9C542.345 36.9 538.812 37.6 535.545 39C532.345 40.4 529.579 42.3667 527.245 44.9C524.912 47.4333 523.112 50.4333 521.845 53.9C520.579 57.3 519.945 61.0667 519.945 65.2C519.945 69.2667 520.579 73.0333 521.845 76.5C523.112 79.9 524.912 82.8667 527.245 85.4C529.579 87.9333 532.345 89.9 535.545 91.3C538.812 92.6333 542.345 93.3 546.145 93.3Z" fill="#A9ABAE"/>
<path d="M240.38 235V131.332H263.753V171.4H299.528V131.332H323.06V235H299.528V191.752H263.753V235H240.38ZM389.653 236.908C380.325 236.908 372.11 234.735 365.008 230.389C358.012 226.043 352.5 219.842 348.472 211.786C344.55 203.73 342.589 194.031 342.589 182.689C342.589 171.453 344.55 161.86 348.472 153.91C352.5 145.96 358.012 139.918 365.008 135.784C372.11 131.544 380.325 129.424 389.653 129.424C398.981 129.424 407.143 131.544 414.139 135.784C421.241 139.918 426.753 145.96 430.675 153.91C434.703 161.86 436.717 171.453 436.717 182.689C436.717 194.031 434.703 203.73 430.675 211.786C426.753 219.842 421.241 226.043 414.139 230.389C407.143 234.735 398.981 236.908 389.653 236.908ZM389.653 216.715C394.423 216.715 398.504 215.337 401.896 212.581C405.394 209.719 408.044 205.797 409.846 200.815C411.754 195.727 412.708 189.685 412.708 182.689C412.708 175.799 411.754 169.916 409.846 165.04C408.044 160.058 405.394 156.242 401.896 153.592C398.504 150.942 394.423 149.617 389.653 149.617C384.989 149.617 380.908 150.942 377.41 153.592C373.912 156.242 371.209 160.058 369.301 165.04C367.499 169.916 366.598 175.799 366.598 182.689C366.598 189.685 367.499 195.727 369.301 200.815C371.209 205.797 373.912 209.719 377.41 212.581C380.908 215.337 384.989 216.715 389.653 216.715ZM456.21 235V131.332H491.667C498.875 131.332 505.341 132.127 511.065 133.717C516.895 135.201 521.453 137.798 524.739 141.508C528.131 145.218 529.827 150.412 529.827 157.09C529.827 162.284 528.661 166.948 526.329 171.082C523.997 175.11 520.605 177.919 516.153 179.509V180.145C522.089 181.417 526.7 183.961 529.986 187.777C533.378 191.487 535.074 196.681 535.074 203.359C535.074 210.673 533.219 216.662 529.509 221.326C525.905 225.99 521.082 229.435 515.04 231.661C508.998 233.887 502.161 235 494.529 235H456.21ZM479.583 172.831H490.554C496.278 172.831 500.412 171.718 502.956 169.492C505.606 167.266 506.931 164.298 506.931 160.588C506.931 156.56 505.606 153.698 502.956 152.002C500.306 150.306 496.225 149.458 490.713 149.458H479.583V172.831ZM479.583 216.874H492.621C499.087 216.874 503.91 215.761 507.09 213.535C510.376 211.203 512.019 207.705 512.019 203.041C512.019 198.483 510.376 195.197 507.09 193.183C503.91 191.169 499.087 190.162 492.621 190.162H479.583V216.874ZM552.479 235V131.332H575.852V235H552.479Z" fill="#A9ABAE"/>
<path d="M126.074 113.2V72.6H203V32H123.937H44.1369C41.7829 32 39.4329 32.1945 37.111 32.5815L34.0464 33.0922C29.8914 33.7848 25.8632 35.0946 22.0956 36.9784C17.4016 39.3255 13.3184 42.7332 10.1696 46.9317L8.54725 49.0947L8.22702 49.6285C4.24184 56.2704 2.13672 63.8706 2.13672 71.6164V203.884C2.13672 206.1 2.40851 208.308 2.94601 210.458C3.8222 213.963 5.39017 217.257 7.55775 220.147L8.02807 220.774C9.7898 223.123 11.8765 225.21 14.2255 226.972L14.8862 227.467C17.7587 229.622 21.0015 231.232 24.4541 232.219L28.4342 233.356C32.2523 234.447 36.2039 235 40.1749 235H164.537H169.418C177.382 235 185.167 232.643 191.794 228.225C193.562 227.046 195.209 225.696 196.712 224.193L197.337 223.569C201.061 219.844 203.867 215.304 205.533 210.307C206.686 206.848 207.274 203.225 207.274 199.579V115.337H166.674V196.537H126.074V158.074H83.3367V196.537H40.5999L42.7367 72.6H83.3367V113.2H126.074Z" fill="#2F345E" stroke="#2F345E" stroke-width="4.27368"/>
<defs>
<linearGradient id="paint0_linear_91_2" x1="0" y1="0" x2="443.176" y2="395.173" gradientUnits="userSpaceOnUse">
<stop offset="1" stop-color="#A5AAA9" stop-opacity="0"/>
</linearGradient>
</defs>
</svg>
